<?xml version="1.0" encoding="UTF-8" standalone="no"?>
<!DOCTYPE svg PUBLIC "-//W3C//DTD SVG 1.1//EN" "http://www.w3.org/Graphics/SVG/1.1/DTD/svg11.dtd">
<!-- Created with Vectornator (http://vectornator.io/) -->
<svg height="100%" stroke-miterlimit="10" style="fill-rule:nonzero;clip-rule:evenodd;stroke-linecap:round;stroke-linejoin:round;" version="1.1" viewBox="0 0 64 64" width="100%" xml:space="preserve" xmlns="http://www.w3.org/2000/svg" xmlns:vectornator="http://vectornator.io" xmlns:xlink="http://www.w3.org/1999/xlink">
<defs/>
<clipPath id="ArtboardFrame">
<rect height="64" width="64" x="0" y="0"/>
</clipPath>
<g clip-path="url(#ArtboardFrame)" id="Layer-1" vectornator:layerName="Layer 1">
<path d="M34 40C34 37.7909 36.6863 36 40 36C43.3137 36 46 37.7909 46 40C46 42.2091 43.3137 44 40 44C36.6863 44 34 42.2091 34 40Z" fill="#b8b8b8" fill-rule="evenodd" opacity="1" stroke="#ff0000" stroke-linecap="round" stroke-linejoin="round" stroke-opacity="0" stroke-width="2"/>
<path d="M24 36C24 28.9626 24 12 24 12C24 12 30.1408 20 32 20C34.3526 20 40 12 40 12C40 16 40 30.3195 40 36C40 48.1503 36.4183 56 32 56C27.5817 56 24 48.1503 24 36Z" fill="#474747" fill-rule="evenodd" opacity="1" stroke="#000000" stroke-linecap="butt" stroke-linejoin="round" stroke-width="2"/>
<path d="M68 46C68 44.8954 70.6863 44 74 44C77.3137 44 80 44.8954 80 46C80 47.1046 77.3137 48 74 48C70.6863 48 68 47.1046 68 46Z" fill="#474747" fill-rule="evenodd" opacity="1" stroke="#000000" stroke-linecap="butt" stroke-linejoin="round" stroke-width="4"/>
<path d="M24 36L40 36L40 60L24 60L24 36Z" fill="#6a4641" fill-rule="evenodd" opacity="1" stroke="#000000" stroke-linecap="butt" stroke-linejoin="round" stroke-width="2"/>
<path d="M24 12L32 20L40 12" fill="#474747" fill-opacity="0" fill-rule="evenodd" opacity="1" stroke="#ff0505" stroke-linecap="round" stroke-linejoin="round" stroke-width="2"/>
<path d="M24 12C24 12 24 4 28 4" fill="#474747" fill-opacity="0" fill-rule="evenodd" opacity="1" stroke="#ff0000" stroke-linecap="round" stroke-linejoin="round" stroke-width="2"/>
<path d="M40 12C40 12 40 4 36 4" fill="#474747" fill-opacity="0" fill-rule="evenodd" opacity="1" stroke="#ff0000" stroke-linecap="round" stroke-linejoin="round" stroke-width="2"/>
<path d="M32 44L28 48L32 52L36 48L32 44Z" fill="#474747" fill-opacity="0" fill-rule="evenodd" opacity="1" stroke="#ff0000" stroke-linecap="round" stroke-linejoin="round" stroke-width="2"/>
</g>
</svg>
