<?xml version="1.0" encoding="UTF-8" standalone="no"?>
<!DOCTYPE svg PUBLIC "-//W3C//DTD SVG 1.1//EN" "http://www.w3.org/Graphics/SVG/1.1/DTD/svg11.dtd">
<!-- Created with Vectornator (http://vectornator.io/) -->
<svg height="100%" stroke-miterlimit="10" style="fill-rule:nonzero;clip-rule:evenodd;stroke-linecap:round;stroke-linejoin:round;" version="1.1" viewBox="0 0 64 64" width="100%" xml:space="preserve" xmlns="http://www.w3.org/2000/svg" xmlns:vectornator="http://vectornator.io" xmlns:xlink="http://www.w3.org/1999/xlink">
<defs/>
<g id="Layer-1" vectornator:layerName="Layer 1">
<path d="M30 40C30 37.7909 32.6863 36 36 36C39.3137 36 42 37.7909 42 40C42 42.2091 39.3137 44 36 44C32.6863 44 30 42.2091 30 40Z" fill="#b8b8b8" fill-rule="evenodd" opacity="1" stroke="#ff0000" stroke-linecap="round" stroke-linejoin="round" stroke-opacity="0" stroke-width="2"/>
<path d="M28 32C28 23.3579 28 14.8571 28 11.4286C28 8 31.2312 8 32 8C32.7971 8 36 8 36 11.4286C36 14.8571 36 23.528 36 32C36 40.742 36 49.1429 36 52.5714C36 53.4408 36 52.5714 36 56C36 56 32 56 28 56C28 56 28 56 28 52.5714C28 49.1429 28 40.8732 28 32Z" fill="#fba690" fill-rule="evenodd" opacity="1" stroke="#000000" stroke-linecap="round" stroke-linejoin="round" stroke-width="2"/>
<path d="M28 20L32 26L36 20L36 44L32 40L28 44L28 20Z" fill="#404040" fill-rule="evenodd" opacity="1" stroke="#000000" stroke-linecap="round" stroke-linejoin="round" stroke-width="2"/>
<path d="M28 12C28 8 32 8 32 8C32 8 36 8 36 12" fill="#404040" fill-opacity="0" fill-rule="evenodd" opacity="1" stroke="#ff0000" stroke-linecap="round" stroke-linejoin="round" stroke-width="2"/>
</g>
</svg>
