<?xml version="1.0" encoding="UTF-8" standalone="no"?>
<!DOCTYPE svg PUBLIC "-//W3C//DTD SVG 1.1//EN" "http://www.w3.org/Graphics/SVG/1.1/DTD/svg11.dtd">
<!-- Created with Vectornator (http://vectornator.io/) -->
<svg height="100%" stroke-miterlimit="10" style="fill-rule:nonzero;clip-rule:evenodd;stroke-linecap:round;stroke-linejoin:round;" version="1.1" viewBox="0 0 64 64" width="100%" xml:space="preserve" xmlns="http://www.w3.org/2000/svg" xmlns:vectornator="http://vectornator.io" xmlns:xlink="http://www.w3.org/1999/xlink">
<defs/>
<g id="Layer-1" vectornator:layerName="Layer 1">
<path d="M34 40C34 37.7909 36.6863 36 40 36C43.3137 36 46 37.7909 46 40C46 42.2091 43.3137 44 40 44C36.6863 44 34 42.2091 34 40Z" fill="#b8b8b8" fill-rule="evenodd" opacity="1" stroke="#ff0000" stroke-linecap="round" stroke-linejoin="round" stroke-opacity="0" stroke-width="2"/>
<path d="M32 32C32 24.7983 32 17.7143 32 14.8571C32 12 35.2312 12 36 12C36.7971 12 40 12 40 14.8571C40 17.7143 40 24.94 40 32C40 39.285 40 46.2857 40 49.1429C40 49.8673 40 49.1429 40 52C40 52 36 52 32 52C32 52 32 52 32 49.1429C32 46.2857 32 39.3943 32 32Z" fill="#737373" fill-rule="evenodd" opacity="1" stroke="#000000" stroke-linecap="round" stroke-linejoin="round" stroke-width="2"/>
<path d="M24 32C24 24.7983 24 17.7143 24 14.8571C24 12 27.2312 12 28 12C28.7971 12 32 12 32 14.8571C32 17.7143 32 24.94 32 32C32 39.285 32 46.2857 32 49.1429C32 49.8673 32 49.1429 32 52C32 52 28 52 24 52C24 52 24 52 24 49.1429C24 46.2857 24 39.3943 24 32Z" fill="#737373" fill-rule="evenodd" opacity="1" stroke="#000000" stroke-linecap="round" stroke-linejoin="round" stroke-width="2"/>
<path d="M32 16C32 12 36 12 36 12C36 12 40 12 40 16" fill="#b8b8b8" fill-opacity="0" fill-rule="evenodd" opacity="1" stroke="#ff0000" stroke-linecap="round" stroke-linejoin="round" stroke-width="2"/>
<path d="M24 16C24 12 28 12 28 12C28 12 32 12 32 16" fill="#b8b8b8" fill-opacity="0" fill-rule="evenodd" opacity="1" stroke="#ff0000" stroke-linecap="round" stroke-linejoin="round" stroke-width="2"/>
<path d="M28 30C28 22.0781 28 14.2857 28 11.1429C28 8 31.2312 8 32 8C32.7971 8 36 8 36 11.1429C36 14.2857 36 22.234 36 30C36 38.0135 36 45.7143 36 48.8571C36 49.654 36 48.8571 36 52C36 52 32 52 28 52C28 52 28 52 28 48.8571C28 45.7143 28 38.1338 28 30Z" fill="#737373" fill-rule="evenodd" opacity="1" stroke="#000000" stroke-linecap="round" stroke-linejoin="round" stroke-width="2"/>
<path d="M28 12C28 8 32 8 32 8C32 8 36 8 36 12" fill="#b8b8b8" fill-opacity="0" fill-rule="evenodd" opacity="1" stroke="#ff0000" stroke-linecap="round" stroke-linejoin="round" stroke-width="2"/>
<path d="M24 36L40 36L40 52L24 52L24 36Z" fill="#a0a0a0" fill-rule="evenodd" opacity="1" stroke="#000000" stroke-linecap="round" stroke-linejoin="round" stroke-width="2"/>
</g>
</svg>
